<svg width="960" height="1280" viewBox="0 0 960 1280" fill="none" xmlns="http://www.w3.org/2000/svg">
  <rect width="960" height="1280" fill="#EFF5FF"/>
  <circle cx="685" cy="380" r="98" fill="#FFF7A6"/>
  <g fill="#F9FBFF" opacity="0.95">
    <path d="M23 235C23 209.595 43.5949 189 69 189H71.6756C82.7338 166.405 106.018 151 132.9 151C151.117 151 167.876 158.076 180.287 169.63C188.868 150.287 207.537 137 229.309 137C258.774 137 282.66 160.886 282.66 190.351C282.66 191.915 282.593 193.464 282.46 194.995H313C345.585 194.995 372 221.41 372 253.995V255H23V235Z"/>
    <path d="M423 125C423 112.297 433.297 102 446 102H447.338C452.867 90.7024 464.509 83 477.95 83C487.059 83 495.438 86.5381 501.644 92.3148C505.934 82.6436 515.268 76 526.154 76C540.887 76 552.83 87.943 552.83 102.676C552.83 103.458 552.796 104.232 552.73 104.997H568C584.292 104.997 597.5 118.205 597.5 134.497V135H423V125Z"/>
    <path d="M663 421C663 394.49 684.49 373 711 373H713.792C725.326 349.438 749.626 333.375 777.596 333.375C796.551 333.375 813.987 340.743 826.899 352.769C835.829 332.646 855.252 318.822 877.912 318.822C908.583 318.822 933.449 343.688 933.449 374.359C933.449 375.987 933.379 377.599 933.24 379.192H966C999.137 379.192 1026 406.055 1026 439.192V440.218H663V421Z"/>
    <path d="M-17 497C-17 469.938 4.93804 448 32 448H34.8412C46.5795 424.031 71.311 407.688 99.7864 407.688C119.085 407.688 136.837 415.177 149.98 427.399C159.07 406.914 178.841 392.84 201.909 392.84C233.14 392.84 258.46 418.16 258.46 449.392C258.46 451.05 258.389 452.691 258.247 454.314H291.583C325.341 454.314 352.708 481.681 352.708 515.439V516.486H-17V497Z"/>
  </g>
  <path d="M0 617C72.7961 617 104.286 681.981 173.727 681.981C228.643 681.981 257.372 637.249 308.387 637.249C373.687 637.249 429.022 705.594 538.223 705.594C646.321 705.594 687.587 690.196 759.615 690.196C831.642 690.196 881.955 649.941 960 649.941V1280H0V617Z" fill="url(#paint0_linear_1_2)"/>
  <path d="M0 760C98.0654 760 186.761 735.558 262.782 735.558C338.804 735.558 418.652 769.131 505.25 769.131C591.848 769.131 639.109 735.558 734.467 735.558C799.286 735.558 882.147 768.881 960 768.881V1280H0V760Z" fill="url(#paint1_linear_1_2)"/>
  <path d="M0 817.166C74.6729 817.166 136.43 855.671 248.369 855.671C360.307 855.671 395.486 823 487.912 823C580.338 823 656.992 844.248 736.703 844.248C816.414 844.248 894.255 813 960 813V1280H0V817.166Z" fill="url(#paint2_linear_1_2)"/>
  <path d="M0 861C114.024 861 166.407 876.433 264.273 876.433C362.138 876.433 444.833 847 547.174 847C649.515 847 710.391 891.353 829.194 891.353C892.546 891.353 921.371 883.742 960 879.936V1280H0V861Z" fill="url(#paint3_linear_1_2)"/>
  <path d="M0 937C111.108 937 201.91 898 324.298 898C446.687 898 533.227 960 679.198 960C825.169 960 901.481 929 960 929V1280H0V937Z" fill="url(#paint4_linear_1_2)"/>
  <path d="M0 1008C93.9628 1008 193.524 1030.83 273.979 1030.83C354.434 1030.83 435.905 995 535.657 995C635.409 995 731.338 1017.27 823.54 1017.27C884.311 1017.27 928.968 1000.85 960 994.761V1280H0V1008Z" fill="url(#paint5_linear_1_2)"/>
  <path d="M0 1089C160.348 1089 285.719 1038 424.741 1038C563.763 1038 640.919 1098.26 803.011 1098.26C866.516 1098.26 923.025 1093.84 960 1090.17V1280H0V1089Z" fill="url(#paint6_linear_1_2)"/>
  <g opacity="0.8" stroke="#FCFFF0" stroke-width="3">
    <path d="M-13 866C102.309 849.143 194.963 838.895 288.114 838.895C456.805 838.895 585.368 884.33 767 884.33C835.816 884.33 902.763 878.115 972 865"/>
    <path d="M-32 930C102.496 911.396 183.924 902.075 312.274 902.075C473.892 902.075 603.31 933.567 796 933.567C859.509 933.567 917.432 927.506 990 916"/>
    <path d="M-46 984C115.651 968.033 257.267 955 381.418 955C526.123 955 641.726 982.692 827 982.692C879.116 982.692 931.511 976.461 997 969"/>
    <path d="M-31 1038C122.918 1024.1 246.208 1018.3 410.363 1018.3C587.875 1018.3 690.924 1045.95 842 1045.95C892.335 1045.95 951.278 1037.43 1004 1032"/>
    <path d="M-19 1095C162.92 1079.88 297.813 1071.5 450.164 1071.5C631.152 1071.5 742.727 1102.6 864.65 1102.6C919.948 1102.6 960.619 1098.85 1008 1095"/>
    <path d="M-28 1146C126.517 1128.38 283.354 1120.58 479.989 1120.58C649.656 1120.58 750.402 1149.68 892.792 1149.68C935.979 1149.68 975.943 1144.41 1017 1140"/>
  </g>
  <g fill="#AAC657">
    <path d="M422 770L431 731L440 770H422Z"/>
    <path d="M450 775L460 725L470 775H450Z"/>
    <path d="M480 771L490 720L500 771H480Z"/>
    <path d="M510 776L520 727L530 776H510Z"/>
    <path d="M538 771L548 719L558 771H538Z"/>
    <path d="M566 775L576 726L586 775H566Z"/>
    <path d="M594 771L604 720L614 771H594Z"/>
    <path d="M622 778L632 724L642 778H622Z"/>
    <path d="M650 772L660 722L670 772H650Z"/>
    <path d="M677 776L687 729L697 776H677Z"/>
    <path d="M704 773L714 723L724 773H704Z"/>
    <path d="M731 777L741 726L751 777H731Z"/>
    <path d="M758 772L768 721L778 772H758Z"/>
    <path d="M784 777L794 729L804 777H784Z"/>
    <path d="M811 771L821 719L831 771H811Z"/>
  </g>
  <g fill="#F9F2E8">
    <rect x="193" y="760" width="104" height="61" rx="3"/>
    <polygon points="183,760 245,744 307,760 307,770 183,770" fill="#CC571F"/>
    <rect x="209" y="789" width="18" height="32" fill="#B58E67"/>
    <rect x="237" y="789" width="18" height="18" fill="#B58E67"/>
    <rect x="263" y="789" width="18" height="18" fill="#B58E67"/>
    <rect x="774" y="725" width="67" height="39" rx="2"/>
    <polygon points="767,725 807,707 847,725 847,732 767,732" fill="#D86A36"/>
    <rect x="793" y="744" width="14" height="20" fill="#B58E67"/>
    <rect x="812" y="744" width="12" height="12" fill="#B58E67"/>
    <rect x="881" y="731" width="78" height="61" rx="2"/>
    <polygon points="872,731 919,707 966,731 966,741 872,741" fill="#C45422"/>
    <rect x="897" y="759" width="18" height="33" fill="#B58E67"/>
    <rect x="921" y="759" width="16" height="16" fill="#B58E67"/>
    <rect x="941" y="759" width="16" height="16" fill="#B58E67"/>
    <rect x="-7" y="756" width="78" height="44" rx="2"/>
    <polygon points="-14,756 31,732 78,756 78,764 -14,764" fill="#D96D3C"/>
    <rect x="13" y="778" width="18" height="22" fill="#B58E67"/>
    <rect x="37" y="778" width="12" height="12" fill="#B58E67"/>
  </g>
  <g fill="#7EA44A">
    <path d="M390 1128C398.637 1110.87 413.785 1098 435 1098C422.712 1114.04 419.186 1126.28 424.42 1134.73C406.073 1135.24 394.599 1133.02 390 1128Z"/>
    <path d="M820 1165C826.497 1152.06 837.889 1142.34 853.833 1135.82C854.833 1147.56 852.333 1158.17 846.333 1167.64C836.663 1168.53 827.996 1167.99 820 1165Z"/>
    <path d="M563 1195C570.881 1179.83 583.839 1168 602.5 1160C607.661 1175.86 605.541 1188.03 596.141 1196.5C583.385 1198.15 572.338 1197.65 563 1195Z"/>
    <path d="M42 1212C48.2655 1197.85 58.3764 1187.25 72.3328 1180.21C76.2696 1194.7 73.8875 1205.64 65.1866 1213.02C55.0216 1214.52 47.9594 1214.18 42 1212Z"/>
  </g>
  <defs>
    <linearGradient id="paint0_linear_1_2" x1="191.5" y1="617" x2="722.5" y2="897" gradientUnits="userSpaceOnUse">
      <stop stop-color="#72B6BE"/>
      <stop offset="1" stop-color="#B3D5E7"/>
    </linearGradient>
    <linearGradient id="paint1_linear_1_2" x1="0" y1="752" x2="960" y2="752" gradientUnits="userSpaceOnUse">
      <stop stop-color="#7CA163"/>
      <stop offset="1" stop-color="#A9C85A"/>
    </linearGradient>
    <linearGradient id="paint2_linear_1_2" x1="0" y1="834" x2="960" y2="834" gradientUnits="userSpaceOnUse">
      <stop stop-color="#B2C34C"/>
      <stop offset="0.56" stop-color="#F7A73A"/>
      <stop offset="1" stop-color="#F6A73A"/>
    </linearGradient>
    <linearGradient id="paint3_linear_1_2" x1="0" y1="869" x2="960" y2="869" gradientUnits="userSpaceOnUse">
      <stop stop-color="#B9D563"/>
      <stop offset="1" stop-color="#A3C14D"/>
    </linearGradient>
    <linearGradient id="paint4_linear_1_2" x1="0" y1="929" x2="960" y2="929" gradientUnits="userSpaceOnUse">
      <stop stop-color="#BED86D"/>
      <stop offset="0.48" stop-color="#A9C54D"/>
      <stop offset="1" stop-color="#F6A33A"/>
    </linearGradient>
    <linearGradient id="paint5_linear_1_2" x1="0" y1="1008" x2="960" y2="1008" gradientUnits="userSpaceOnUse">
      <stop stop-color="#D2E48B"/>
      <stop offset="1" stop-color="#B6D15C"/>
    </linearGradient>
    <linearGradient id="paint6_linear_1_2" x1="0" y1="1089" x2="960" y2="1089" gradientUnits="userSpaceOnUse">
      <stop stop-color="#D7E88E"/>
      <stop offset="1" stop-color="#B7CF63"/>
    </linearGradient>
  </defs>
</svg>
