<svg width="232" height="145" viewBox="0 0 232 145" fill="none" xmlns="http://www.w3.org/2000/svg">
<g clip-path="url(#clip0_339_2375)">
<rect width="232" height="145" rx="10" fill="#EDF2EA"/>
<path d="M-37.5376 136.379C-17.1636 153.079 -30.891 181.741 -38.9186 179.093C-46.0863 176.728 -28.7494 139.128 -3.13891 142.097C39.0326 146.985 50.9118 166.481 79.6479 158.857C108.584 151.18 114.204 119.051 86.1122 100.714C58.1189 82.4418 102.639 51.1773 106.142 61.2643C108.14 67.0184 86.0423 81.1367 70.2729 67.7032C54.5035 54.2696 33.6219 52.549 20.5063 76.9896C7.39071 101.43 -19.3713 86.9566 -36.4615 83.5968C-53.5517 80.2366 -81.3275 100.486 -37.5376 136.379Z" stroke="#70927F" stroke-width="0.25" stroke-miterlimit="10"/>
<path d="M20.14 25V18H20.75L25.58 24.08H25.26V18H25.99V25H25.38L20.56 18.92H20.88V25H20.14ZM30.3548 25.05C29.8081 25.05 29.3281 24.9367 28.9148 24.71C28.5014 24.4767 28.1781 24.16 27.9448 23.76C27.7114 23.3533 27.5948 22.89 27.5948 22.37C27.5948 21.85 27.7048 21.39 27.9248 20.99C28.1514 20.59 28.4581 20.2767 28.8448 20.05C29.2381 19.8167 29.6781 19.7 30.1648 19.7C30.6581 19.7 31.0948 19.8133 31.4748 20.04C31.8614 20.26 32.1648 20.5733 32.3848 20.98C32.6048 21.38 32.7148 21.8433 32.7148 22.37C32.7148 22.4033 32.7114 22.44 32.7048 22.48C32.7048 22.5133 32.7048 22.55 32.7048 22.59H28.1348V22.06H32.3248L32.0448 22.27C32.0448 21.89 31.9614 21.5533 31.7948 21.26C31.6348 20.96 31.4148 20.7267 31.1348 20.56C30.8548 20.3933 30.5314 20.31 30.1648 20.31C29.8048 20.31 29.4814 20.3933 29.1948 20.56C28.9081 20.7267 28.6848 20.96 28.5248 21.26C28.3648 21.56 28.2848 21.9033 28.2848 22.29V22.4C28.2848 22.8 28.3714 23.1533 28.5448 23.46C28.7248 23.76 28.9714 23.9967 29.2848 24.17C29.6048 24.3367 29.9681 24.42 30.3748 24.42C30.6948 24.42 30.9914 24.3633 31.2648 24.25C31.5448 24.1367 31.7848 23.9633 31.9848 23.73L32.3848 24.19C32.1514 24.47 31.8581 24.6833 31.5048 24.83C31.1581 24.9767 30.7748 25.05 30.3548 25.05ZM36.3899 25.05C35.8433 25.05 35.3633 24.9367 34.9499 24.71C34.5366 24.4767 34.2133 24.16 33.9799 23.76C33.7466 23.3533 33.6299 22.89 33.6299 22.37C33.6299 21.85 33.7399 21.39 33.9599 20.99C34.1866 20.59 34.4933 20.2767 34.8799 20.05C35.2733 19.8167 35.7133 19.7 36.1999 19.7C36.6933 19.7 37.1299 19.8133 37.5099 20.04C37.8966 20.26 38.1999 20.5733 38.4199 20.98C38.6399 21.38 38.7499 21.8433 38.7499 22.37C38.7499 22.4033 38.7466 22.44 38.7399 22.48C38.7399 22.5133 38.7399 22.55 38.7399 22.59H34.1699V22.06H38.3599L38.0799 22.27C38.0799 21.89 37.9966 21.5533 37.8299 21.26C37.6699 20.96 37.4499 20.7267 37.1699 20.56C36.8899 20.3933 36.5666 20.31 36.1999 20.31C35.8399 20.31 35.5166 20.3933 35.2299 20.56C34.9433 20.7267 34.7199 20.96 34.5599 21.26C34.3999 21.56 34.3199 21.9033 34.3199 22.29V22.4C34.3199 22.8 34.4066 23.1533 34.5799 23.46C34.7599 23.76 35.0066 23.9967 35.3199 24.17C35.6399 24.3367 36.0033 24.42 36.4099 24.42C36.7299 24.42 37.0266 24.3633 37.2999 24.25C37.5799 24.1367 37.8199 23.9633 38.0199 23.73L38.4199 24.19C38.1866 24.47 37.8933 24.6833 37.5399 24.83C37.1933 24.9767 36.8099 25.05 36.3899 25.05ZM42.2851 25.05C41.7851 25.05 41.3351 24.9367 40.9351 24.71C40.5417 24.4833 40.2317 24.17 40.0051 23.77C39.7784 23.3633 39.6651 22.8967 39.6651 22.37C39.6651 21.8367 39.7784 21.37 40.0051 20.97C40.2317 20.57 40.5417 20.26 40.9351 20.04C41.3351 19.8133 41.7851 19.7 42.2851 19.7C42.7451 19.7 43.1551 19.8033 43.5151 20.01C43.8817 20.2167 44.1717 20.52 44.3851 20.92C44.6051 21.3133 44.7151 21.7967 44.7151 22.37C44.7151 22.9367 44.6084 23.42 44.3951 23.82C44.1817 24.22 43.8917 24.5267 43.5251 24.74C43.1651 24.9467 42.7517 25.05 42.2851 25.05ZM42.3351 24.42C42.7084 24.42 43.0417 24.3367 43.3351 24.17C43.6351 23.9967 43.8684 23.7567 44.0351 23.45C44.2084 23.1367 44.2951 22.7767 44.2951 22.37C44.2951 21.9567 44.2084 21.5967 44.0351 21.29C43.8684 20.9833 43.6351 20.7467 43.3351 20.58C43.0417 20.4067 42.7084 20.32 42.3351 20.32C41.9684 20.32 41.6384 20.4067 41.3451 20.58C41.0517 20.7467 40.8184 20.9833 40.6451 21.29C40.4717 21.5967 40.3851 21.9567 40.3851 22.37C40.3851 22.7767 40.4717 23.1367 40.6451 23.45C40.8184 23.7567 41.0517 23.9967 41.3451 24.17C41.6384 24.3367 41.9684 24.42 42.3351 24.42ZM44.3151 25V23.42L44.3851 22.36L44.2851 21.3V17.58H44.9951V25H44.3151ZM52.2996 25.05C51.8463 25.05 51.4363 24.9467 51.0696 24.74C50.7029 24.5267 50.4096 24.2233 50.1896 23.83C49.9763 23.43 49.8696 22.9433 49.8696 22.37C49.8696 21.7967 49.9763 21.3133 50.1896 20.92C50.4029 20.52 50.6929 20.2167 51.0596 20.01C51.4263 19.8033 51.8396 19.7 52.2996 19.7C52.7996 19.7 53.2463 19.8133 53.6396 20.04C54.0396 20.26 54.3529 20.5733 54.5796 20.98C54.8063 21.38 54.9196 21.8433 54.9196 22.37C54.9196 22.9033 54.8063 23.37 54.5796 23.77C54.3529 24.17 54.0396 24.4833 53.6396 24.71C53.2463 24.9367 52.7996 25.05 52.2996 25.05ZM49.5896 26.94V19.75H50.2696V21.33L50.1996 22.38L50.2996 23.44V26.94H49.5896ZM52.2496 24.42C52.6229 24.42 52.9563 24.3367 53.2496 24.17C53.5429 23.9967 53.7763 23.7567 53.9496 23.45C54.1229 23.1367 54.2096 22.7767 54.2096 22.37C54.2096 21.9633 54.1229 21.6067 53.9496 21.3C53.7763 20.9933 53.5429 20.7533 53.2496 20.58C52.9563 20.4067 52.6229 20.32 52.2496 20.32C51.8763 20.32 51.5396 20.4067 51.2396 20.58C50.9463 20.7533 50.7129 20.9933 50.5396 21.3C50.3729 21.6067 50.2896 21.9633 50.2896 22.37C50.2896 22.7767 50.3729 23.1367 50.5396 23.45C50.7129 23.7567 50.9463 23.9967 51.2396 24.17C51.5396 24.3367 51.8763 24.42 52.2496 24.42ZM56.367 25V19.75H57.047V21.18L56.977 20.93C57.1236 20.53 57.3703 20.2267 57.717 20.02C58.0636 19.8067 58.4936 19.7 59.007 19.7V20.39C58.9803 20.39 58.9536 20.39 58.927 20.39C58.9003 20.3833 58.8736 20.38 58.847 20.38C58.2936 20.38 57.8603 20.55 57.547 20.89C57.2336 21.2233 57.077 21.7 57.077 22.32V25H56.367ZM62.3937 25.05C61.887 25.05 61.4303 24.9367 61.0237 24.71C60.6237 24.4767 60.307 24.16 60.0737 23.76C59.8403 23.3533 59.7237 22.89 59.7237 22.37C59.7237 21.8433 59.8403 21.38 60.0737 20.98C60.307 20.58 60.6237 20.2667 61.0237 20.04C61.4237 19.8133 61.8803 19.7 62.3937 19.7C62.9137 19.7 63.3737 19.8133 63.7737 20.04C64.1803 20.2667 64.497 20.58 64.7237 20.98C64.957 21.38 65.0737 21.8433 65.0737 22.37C65.0737 22.89 64.957 23.3533 64.7237 23.76C64.497 24.16 64.1803 24.4767 63.7737 24.71C63.367 24.9367 62.907 25.05 62.3937 25.05ZM62.3937 24.42C62.7737 24.42 63.1103 24.3367 63.4037 24.17C63.697 23.9967 63.927 23.7567 64.0937 23.45C64.267 23.1367 64.3537 22.7767 64.3537 22.37C64.3537 21.9567 64.267 21.5967 64.0937 21.29C63.927 20.9833 63.697 20.7467 63.4037 20.58C63.1103 20.4067 62.777 20.32 62.4037 20.32C62.0303 20.32 61.697 20.4067 61.4037 20.58C61.1103 20.7467 60.877 20.9833 60.7037 21.29C60.5303 21.5967 60.4437 21.9567 60.4437 22.37C60.4437 22.7767 60.5303 23.1367 60.7037 23.45C60.877 23.7567 61.1103 23.9967 61.4037 24.17C61.697 24.3367 62.027 24.42 62.3937 24.42ZM66.6432 25V19.09C66.6432 18.6233 66.7799 18.2467 67.0532 17.96C67.3265 17.6733 67.7199 17.53 68.2332 17.53C68.4332 17.53 68.6265 17.5567 68.8132 17.61C68.9999 17.6633 69.1565 17.7467 69.2832 17.86L69.0432 18.39C68.9432 18.3033 68.8265 18.24 68.6932 18.2C68.5599 18.1533 68.4165 18.13 68.2632 18.13C67.9632 18.13 67.7332 18.2133 67.5732 18.38C67.4132 18.5467 67.3332 18.7933 67.3332 19.12V19.92L67.3532 20.25V25H66.6432ZM65.7032 20.34V19.75H68.9532V20.34H65.7032ZM72.054 25.05C71.5073 25.05 71.0273 24.9367 70.614 24.71C70.2007 24.4767 69.8773 24.16 69.644 23.76C69.4107 23.3533 69.294 22.89 69.294 22.37C69.294 21.85 69.404 21.39 69.624 20.99C69.8507 20.59 70.1573 20.2767 70.544 20.05C70.9373 19.8167 71.3773 19.7 71.864 19.7C72.3573 19.7 72.794 19.8133 73.174 20.04C73.5607 20.26 73.864 20.5733 74.084 20.98C74.304 21.38 74.414 21.8433 74.414 22.37C74.414 22.4033 74.4107 22.44 74.404 22.48C74.404 22.5133 74.404 22.55 74.404 22.59H69.834V22.06H74.024L73.744 22.27C73.744 21.89 73.6607 21.5533 73.494 21.26C73.334 20.96 73.114 20.7267 72.834 20.56C72.554 20.3933 72.2307 20.31 71.864 20.31C71.504 20.31 71.1807 20.3933 70.894 20.56C70.6073 20.7267 70.384 20.96 70.224 21.26C70.064 21.56 69.984 21.9033 69.984 22.29V22.4C69.984 22.8 70.0707 23.1533 70.244 23.46C70.424 23.76 70.6707 23.9967 70.984 24.17C71.304 24.3367 71.6673 24.42 72.074 24.42C72.394 24.42 72.6907 24.3633 72.964 24.25C73.244 24.1367 73.484 23.9633 73.684 23.73L74.084 24.19C73.8507 24.47 73.5573 24.6833 73.204 24.83C72.8573 24.9767 72.474 25.05 72.054 25.05ZM77.2691 25.05C76.8358 25.05 76.4258 24.99 76.0391 24.87C75.6525 24.7433 75.3491 24.5867 75.1291 24.4L75.4491 23.84C75.6625 24 75.9358 24.14 76.2691 24.26C76.6025 24.3733 76.9525 24.43 77.3191 24.43C77.8191 24.43 78.1791 24.3533 78.3991 24.2C78.6191 24.04 78.7291 23.83 78.7291 23.57C78.7291 23.3767 78.6658 23.2267 78.5391 23.12C78.4191 23.0067 78.2591 22.9233 78.0591 22.87C77.8591 22.81 77.6358 22.76 77.3891 22.72C77.1425 22.68 76.8958 22.6333 76.6491 22.58C76.4091 22.5267 76.1891 22.45 75.9891 22.35C75.7891 22.2433 75.6258 22.1 75.4991 21.92C75.3791 21.74 75.3191 21.5 75.3191 21.2C75.3191 20.9133 75.3991 20.6567 75.5591 20.43C75.7191 20.2033 75.9525 20.0267 76.2591 19.9C76.5725 19.7667 76.9525 19.7 77.3991 19.7C77.7391 19.7 78.0791 19.7467 78.4191 19.84C78.7591 19.9267 79.0391 20.0433 79.2591 20.19L78.9491 20.76C78.7158 20.6 78.4658 20.4867 78.1991 20.42C77.9325 20.3467 77.6658 20.31 77.3991 20.31C76.9258 20.31 76.5758 20.3933 76.3491 20.56C76.1291 20.72 76.0191 20.9267 76.0191 21.18C76.0191 21.38 76.0791 21.5367 76.1991 21.65C76.3258 21.7633 76.4891 21.8533 76.6891 21.92C76.8958 21.98 77.1191 22.03 77.3591 22.07C77.6058 22.11 77.8491 22.16 78.0891 22.22C78.3358 22.2733 78.5591 22.35 78.7591 22.45C78.9658 22.5433 79.1291 22.68 79.2491 22.86C79.3758 23.0333 79.4391 23.2633 79.4391 23.55C79.4391 23.8567 79.3525 24.1233 79.1791 24.35C79.0125 24.57 78.7658 24.7433 78.4391 24.87C78.1191 24.99 77.7291 25.05 77.2691 25.05ZM82.152 25.05C81.7186 25.05 81.3086 24.99 80.922 24.87C80.5353 24.7433 80.232 24.5867 80.012 24.4L80.332 23.84C80.5453 24 80.8186 24.14 81.152 24.26C81.4853 24.3733 81.8353 24.43 82.202 24.43C82.702 24.43 83.062 24.3533 83.282 24.2C83.502 24.04 83.612 23.83 83.612 23.57C83.612 23.3767 83.5486 23.2267 83.422 23.12C83.302 23.0067 83.142 22.9233 82.942 22.87C82.742 22.81 82.5186 22.76 82.272 22.72C82.0253 22.68 81.7786 22.6333 81.532 22.58C81.292 22.5267 81.072 22.45 80.872 22.35C80.672 22.2433 80.5086 22.1 80.382 21.92C80.262 21.74 80.202 21.5 80.202 21.2C80.202 20.9133 80.282 20.6567 80.442 20.43C80.602 20.2033 80.8353 20.0267 81.142 19.9C81.4553 19.7667 81.8353 19.7 82.282 19.7C82.622 19.7 82.962 19.7467 83.302 19.84C83.642 19.9267 83.922 20.0433 84.142 20.19L83.832 20.76C83.5986 20.6 83.3486 20.4867 83.082 20.42C82.8153 20.3467 82.5486 20.31 82.282 20.31C81.8086 20.31 81.4586 20.3933 81.232 20.56C81.012 20.72 80.902 20.9267 80.902 21.18C80.902 21.38 80.962 21.5367 81.082 21.65C81.2086 21.7633 81.372 21.8533 81.572 21.92C81.7786 21.98 82.002 22.03 82.242 22.07C82.4886 22.11 82.732 22.16 82.972 22.22C83.2186 22.2733 83.442 22.35 83.642 22.45C83.8486 22.5433 84.012 22.68 84.132 22.86C84.2586 23.0333 84.322 23.2633 84.322 23.55C84.322 23.8567 84.2353 24.1233 84.062 24.35C83.8953 24.57 83.6486 24.7433 83.322 24.87C83.002 24.99 82.612 25.05 82.152 25.05ZM85.6248 25V19.75H86.3348V25H85.6248ZM85.9848 18.59C85.8381 18.59 85.7148 18.54 85.6148 18.44C85.5148 18.34 85.4648 18.22 85.4648 18.08C85.4648 17.94 85.5148 17.8233 85.6148 17.73C85.7148 17.63 85.8381 17.58 85.9848 17.58C86.1314 17.58 86.2548 17.6267 86.3548 17.72C86.4548 17.8133 86.5048 17.93 86.5048 18.07C86.5048 18.2167 86.4548 18.34 86.3548 18.44C86.2614 18.54 86.1381 18.59 85.9848 18.59ZM90.4503 25.05C89.9436 25.05 89.487 24.9367 89.0803 24.71C88.6803 24.4767 88.3636 24.16 88.1303 23.76C87.897 23.3533 87.7803 22.89 87.7803 22.37C87.7803 21.8433 87.897 21.38 88.1303 20.98C88.3636 20.58 88.6803 20.2667 89.0803 20.04C89.4803 19.8133 89.937 19.7 90.4503 19.7C90.9703 19.7 91.4303 19.8133 91.8303 20.04C92.237 20.2667 92.5536 20.58 92.7803 20.98C93.0136 21.38 93.1303 21.8433 93.1303 22.37C93.1303 22.89 93.0136 23.3533 92.7803 23.76C92.5536 24.16 92.237 24.4767 91.8303 24.71C91.4236 24.9367 90.9636 25.05 90.4503 25.05ZM90.4503 24.42C90.8303 24.42 91.167 24.3367 91.4603 24.17C91.7536 23.9967 91.9836 23.7567 92.1503 23.45C92.3236 23.1367 92.4103 22.7767 92.4103 22.37C92.4103 21.9567 92.3236 21.5967 92.1503 21.29C91.9836 20.9833 91.7536 20.7467 91.4603 20.58C91.167 20.4067 90.8336 20.32 90.4603 20.32C90.087 20.32 89.7536 20.4067 89.4603 20.58C89.167 20.7467 88.9336 20.9833 88.7603 21.29C88.587 21.5967 88.5003 21.9567 88.5003 22.37C88.5003 22.7767 88.587 23.1367 88.7603 23.45C88.9336 23.7567 89.167 23.9967 89.4603 24.17C89.7536 24.3367 90.0836 24.42 90.4503 24.42ZM97.2598 19.7C97.6865 19.7 98.0598 19.7833 98.3798 19.95C98.7065 20.11 98.9598 20.3567 99.1398 20.69C99.3265 21.0233 99.4198 21.4433 99.4198 21.95V25H98.7098V22.02C98.7098 21.4667 98.5698 21.05 98.2898 20.77C98.0165 20.4833 97.6298 20.34 97.1298 20.34C96.7565 20.34 96.4298 20.4167 96.1498 20.57C95.8765 20.7167 95.6632 20.9333 95.5098 21.22C95.3632 21.5 95.2898 21.84 95.2898 22.24V25H94.5798V19.75H95.2598V21.19L95.1498 20.92C95.3165 20.54 95.5832 20.2433 95.9498 20.03C96.3165 19.81 96.7532 19.7 97.2598 19.7ZM104.628 25V23.84L104.598 23.65V21.71C104.598 21.2633 104.471 20.92 104.218 20.68C103.971 20.44 103.601 20.32 103.108 20.32C102.768 20.32 102.444 20.3767 102.138 20.49C101.831 20.6033 101.571 20.7533 101.358 20.94L101.038 20.41C101.304 20.1833 101.624 20.01 101.998 19.89C102.371 19.7633 102.764 19.7 103.178 19.7C103.858 19.7 104.381 19.87 104.748 20.21C105.121 20.5433 105.308 21.0533 105.308 21.74V25H104.628ZM102.818 25.05C102.424 25.05 102.081 24.9867 101.788 24.86C101.501 24.7267 101.281 24.5467 101.128 24.32C100.974 24.0867 100.898 23.82 100.898 23.52C100.898 23.2467 100.961 23 101.088 22.78C101.221 22.5533 101.434 22.3733 101.728 22.24C102.028 22.1 102.428 22.03 102.928 22.03H104.738V22.56H102.948C102.441 22.56 102.088 22.65 101.888 22.83C101.694 23.01 101.598 23.2333 101.598 23.5C101.598 23.8 101.714 24.04 101.948 24.22C102.181 24.4 102.508 24.49 102.928 24.49C103.328 24.49 103.671 24.4 103.958 24.22C104.251 24.0333 104.464 23.7667 104.598 23.42L104.758 23.91C104.624 24.2567 104.391 24.5333 104.058 24.74C103.731 24.9467 103.318 25.05 102.818 25.05ZM107.236 25V17.58H107.946V25H107.236ZM115.829 25V23.84L115.799 23.65V21.71C115.799 21.2633 115.672 20.92 115.419 20.68C115.172 20.44 114.802 20.32 114.309 20.32C113.969 20.32 113.645 20.3767 113.339 20.49C113.032 20.6033 112.772 20.7533 112.559 20.94L112.239 20.41C112.505 20.1833 112.825 20.01 113.199 19.89C113.572 19.7633 113.965 19.7 114.379 19.7C115.059 19.7 115.582 19.87 115.949 20.21C116.322 20.5433 116.509 21.0533 116.509 21.74V25H115.829ZM114.019 25.05C113.625 25.05 113.282 24.9867 112.989 24.86C112.702 24.7267 112.482 24.5467 112.329 24.32C112.175 24.0867 112.099 23.82 112.099 23.52C112.099 23.2467 112.162 23 112.289 22.78C112.422 22.5533 112.635 22.3733 112.929 22.24C113.229 22.1 113.629 22.03 114.129 22.03H115.939V22.56H114.149C113.642 22.56 113.289 22.65 113.089 22.83C112.895 23.01 112.799 23.2333 112.799 23.5C112.799 23.8 112.915 24.04 113.149 24.22C113.382 24.4 113.709 24.49 114.129 24.49C114.529 24.49 114.872 24.4 115.159 24.22C115.452 24.0333 115.665 23.7667 115.799 23.42L115.959 23.91C115.825 24.2567 115.592 24.5333 115.259 24.74C114.932 24.9467 114.519 25.05 114.019 25.05ZM120.527 25.05C120.027 25.05 119.577 24.9367 119.177 24.71C118.784 24.4833 118.474 24.17 118.247 23.77C118.021 23.3633 117.907 22.8967 117.907 22.37C117.907 21.8367 118.021 21.37 118.247 20.97C118.474 20.57 118.784 20.26 119.177 20.04C119.577 19.8133 120.027 19.7 120.527 19.7C120.987 19.7 121.397 19.8033 121.757 20.01C122.124 20.2167 122.414 20.52 122.627 20.92C122.847 21.3133 122.957 21.7967 122.957 22.37C122.957 22.9367 122.851 23.42 122.637 23.82C122.424 24.22 122.134 24.5267 121.767 24.74C121.407 24.9467 120.994 25.05 120.527 25.05ZM120.577 24.42C120.951 24.42 121.284 24.3367 121.577 24.17C121.877 23.9967 122.111 23.7567 122.277 23.45C122.451 23.1367 122.537 22.7767 122.537 22.37C122.537 21.9567 122.451 21.5967 122.277 21.29C122.111 20.9833 121.877 20.7467 121.577 20.58C121.284 20.4067 120.951 20.32 120.577 20.32C120.211 20.32 119.881 20.4067 119.587 20.58C119.294 20.7467 119.061 20.9833 118.887 21.29C118.714 21.5967 118.627 21.9567 118.627 22.37C118.627 22.7767 118.714 23.1367 118.887 23.45C119.061 23.7567 119.294 23.9967 119.587 24.17C119.881 24.3367 120.211 24.42 120.577 24.42ZM122.557 25V23.42L122.627 22.36L122.527 21.3V17.58H123.237V25H122.557ZM126.565 25L124.235 19.75H124.975L127.115 24.62H126.765L128.935 19.75H129.635L127.295 25H126.565ZM130.635 25V19.75H131.345V25H130.635ZM130.995 18.59C130.848 18.59 130.725 18.54 130.625 18.44C130.525 18.34 130.475 18.22 130.475 18.08C130.475 17.94 130.525 17.8233 130.625 17.73C130.725 17.63 130.848 17.58 130.995 17.58C131.141 17.58 131.265 17.6267 131.365 17.72C131.465 17.8133 131.515 17.93 131.515 18.07C131.515 18.2167 131.465 18.34 131.365 18.44C131.271 18.54 131.148 18.59 130.995 18.59ZM135.5 25.05C134.98 25.05 134.513 24.9367 134.1 24.71C133.693 24.4767 133.373 24.16 133.14 23.76C132.907 23.3533 132.79 22.89 132.79 22.37C132.79 21.8433 132.907 21.38 133.14 20.98C133.373 20.58 133.693 20.2667 134.1 20.04C134.513 19.8133 134.98 19.7 135.5 19.7C135.947 19.7 136.35 19.7867 136.71 19.96C137.07 20.1333 137.353 20.3933 137.56 20.74L137.03 21.1C136.85 20.8333 136.627 20.6367 136.36 20.51C136.093 20.3833 135.803 20.32 135.49 20.32C135.117 20.32 134.78 20.4067 134.48 20.58C134.18 20.7467 133.943 20.9833 133.77 21.29C133.597 21.5967 133.51 21.9567 133.51 22.37C133.51 22.7833 133.597 23.1433 133.77 23.45C133.943 23.7567 134.18 23.9967 134.48 24.17C134.78 24.3367 135.117 24.42 135.49 24.42C135.803 24.42 136.093 24.3567 136.36 24.23C136.627 24.1033 136.85 23.91 137.03 23.65L137.56 24.01C137.353 24.35 137.07 24.61 136.71 24.79C136.35 24.9633 135.947 25.05 135.5 25.05ZM141.097 25.05C140.55 25.05 140.07 24.9367 139.657 24.71C139.244 24.4767 138.92 24.16 138.687 23.76C138.454 23.3533 138.337 22.89 138.337 22.37C138.337 21.85 138.447 21.39 138.667 20.99C138.894 20.59 139.2 20.2767 139.587 20.05C139.98 19.8167 140.42 19.7 140.907 19.7C141.4 19.7 141.837 19.8133 142.217 20.04C142.604 20.26 142.907 20.5733 143.127 20.98C143.347 21.38 143.457 21.8433 143.457 22.37C143.457 22.4033 143.454 22.44 143.447 22.48C143.447 22.5133 143.447 22.55 143.447 22.59H138.877V22.06H143.067L142.787 22.27C142.787 21.89 142.704 21.5533 142.537 21.26C142.377 20.96 142.157 20.7267 141.877 20.56C141.597 20.3933 141.274 20.31 140.907 20.31C140.547 20.31 140.224 20.3933 139.937 20.56C139.65 20.7267 139.427 20.96 139.267 21.26C139.107 21.56 139.027 21.9033 139.027 22.29V22.4C139.027 22.8 139.114 23.1533 139.287 23.46C139.467 23.76 139.714 23.9967 140.027 24.17C140.347 24.3367 140.71 24.42 141.117 24.42C141.437 24.42 141.734 24.3633 142.007 24.25C142.287 24.1367 142.527 23.9633 142.727 23.73L143.127 24.19C142.894 24.47 142.6 24.6833 142.247 24.83C141.9 24.9767 141.517 25.05 141.097 25.05ZM145.784 22.9C145.784 22.62 145.827 22.38 145.914 22.18C146.007 21.98 146.12 21.8033 146.254 21.65C146.394 21.4967 146.54 21.3533 146.694 21.22C146.854 21.0867 147.004 20.9533 147.144 20.82C147.284 20.68 147.397 20.53 147.484 20.37C147.57 20.2033 147.614 20.01 147.614 19.79C147.614 19.43 147.474 19.1367 147.194 18.91C146.914 18.6833 146.517 18.57 146.004 18.57C145.577 18.57 145.207 18.64 144.894 18.78C144.58 18.9133 144.314 19.1133 144.094 19.38L143.564 18.98C143.83 18.6467 144.174 18.39 144.594 18.21C145.014 18.03 145.5 17.94 146.054 17.94C146.52 17.94 146.924 18.01 147.264 18.15C147.61 18.29 147.877 18.49 148.064 18.75C148.257 19.01 148.354 19.32 148.354 19.68C148.354 19.9667 148.307 20.2133 148.214 20.42C148.127 20.62 148.014 20.8 147.874 20.96C147.74 21.1133 147.594 21.26 147.434 21.4C147.28 21.5333 147.134 21.67 146.994 21.81C146.854 21.95 146.74 22.1067 146.654 22.28C146.567 22.4533 146.524 22.66 146.524 22.9H145.784ZM146.154 25.05C146.014 25.05 145.89 25 145.784 24.9C145.684 24.7933 145.634 24.67 145.634 24.53C145.634 24.3833 145.684 24.2633 145.784 24.17C145.89 24.07 146.014 24.02 146.154 24.02C146.307 24.02 146.434 24.07 146.534 24.17C146.634 24.2633 146.684 24.3833 146.684 24.53C146.684 24.67 146.634 24.7933 146.534 24.9C146.434 25 146.307 25.05 146.154 25.05Z" fill="#1E1E1E"/>
<path d="M24.852 42.112C24.1053 42.112 23.4147 41.9907 22.78 41.748C22.1547 41.496 21.6087 41.146 21.142 40.698C20.6847 40.2407 20.3253 39.7087 20.064 39.102C19.8027 38.4953 19.672 37.828 19.672 37.1C19.672 36.372 19.8027 35.7047 20.064 35.098C20.3253 34.4913 20.6893 33.964 21.156 33.516C21.6227 33.0587 22.1687 32.7087 22.794 32.466C23.4287 32.214 24.1193 32.088 24.866 32.088C25.622 32.088 26.3173 32.2187 26.952 32.48C27.596 32.732 28.142 33.11 28.59 33.614L27.68 34.496C27.3067 34.104 26.8867 33.8147 26.42 33.628C25.9533 33.432 25.454 33.334 24.922 33.334C24.3713 33.334 23.858 33.4273 23.382 33.614C22.9153 33.8007 22.5093 34.062 22.164 34.398C21.8187 34.734 21.548 35.1353 21.352 35.602C21.1653 36.0593 21.072 36.5587 21.072 37.1C21.072 37.6413 21.1653 38.1453 21.352 38.612C21.548 39.0693 21.8187 39.466 22.164 39.802C22.5093 40.138 22.9153 40.3993 23.382 40.586C23.858 40.7727 24.3713 40.866 24.922 40.866C25.454 40.866 25.9533 40.7727 26.42 40.586C26.8867 40.39 27.3067 40.0913 27.68 39.69L28.59 40.572C28.142 41.076 27.596 41.4587 26.952 41.72C26.3173 41.9813 25.6173 42.112 24.852 42.112ZM33.2547 42.084C32.5081 42.084 31.8454 41.9207 31.2667 41.594C30.6881 41.2673 30.2307 40.8193 29.8947 40.25C29.5587 39.6713 29.3907 39.018 29.3907 38.29C29.3907 37.5527 29.5587 36.8993 29.8947 36.33C30.2307 35.7607 30.6881 35.3173 31.2667 35C31.8454 34.6733 32.5081 34.51 33.2547 34.51C33.9921 34.51 34.6501 34.6733 35.2287 35C35.8167 35.3173 36.2741 35.7607 36.6007 36.33C36.9367 36.89 37.1047 37.5433 37.1047 38.29C37.1047 39.0273 36.9367 39.6807 36.6007 40.25C36.2741 40.8193 35.8167 41.2673 35.2287 41.594C34.6501 41.9207 33.9921 42.084 33.2547 42.084ZM33.2547 40.908C33.7307 40.908 34.1554 40.8007 34.5287 40.586C34.9114 40.3713 35.2101 40.068 35.4247 39.676C35.6394 39.2747 35.7467 38.8127 35.7467 38.29C35.7467 37.758 35.6394 37.3007 35.4247 36.918C35.2101 36.526 34.9114 36.2227 34.5287 36.008C34.1554 35.7933 33.7307 35.686 33.2547 35.686C32.7787 35.686 32.3541 35.7933 31.9807 36.008C31.6074 36.2227 31.3087 36.526 31.0847 36.918C30.8607 37.3007 30.7487 37.758 30.7487 38.29C30.7487 38.8127 30.8607 39.2747 31.0847 39.676C31.3087 40.068 31.6074 40.3713 31.9807 40.586C32.3541 40.8007 32.7787 40.908 33.2547 40.908ZM42.9255 34.51C43.5321 34.51 44.0641 34.6267 44.5215 34.86C44.9881 35.0933 45.3521 35.448 45.6135 35.924C45.8748 36.4 46.0055 37.002 46.0055 37.73V42H44.6615V37.884C44.6615 37.1653 44.4841 36.624 44.1295 36.26C43.7841 35.896 43.2941 35.714 42.6595 35.714C42.1835 35.714 41.7681 35.8073 41.4135 35.994C41.0588 36.1807 40.7835 36.456 40.5875 36.82C40.4008 37.184 40.3075 37.6367 40.3075 38.178V42H38.9635V34.58H40.2515V36.582L40.0415 36.05C40.2841 35.5647 40.6575 35.1867 41.1615 34.916C41.6655 34.6453 42.2535 34.51 42.9255 34.51ZM50.6208 42.084C50.0048 42.084 49.4168 42 48.8568 41.832C48.3061 41.664 47.8721 41.4587 47.5548 41.216L48.1148 40.152C48.4321 40.3667 48.8241 40.5487 49.2908 40.698C49.7574 40.8473 50.2334 40.922 50.7188 40.922C51.3441 40.922 51.7921 40.8333 52.0628 40.656C52.3428 40.4787 52.4828 40.2313 52.4828 39.914C52.4828 39.6807 52.3988 39.4987 52.2308 39.368C52.0628 39.2373 51.8388 39.1393 51.5588 39.074C51.2881 39.0087 50.9848 38.9527 50.6488 38.906C50.3128 38.85 49.9768 38.7847 49.6408 38.71C49.3048 38.626 48.9968 38.514 48.7168 38.374C48.4368 38.2247 48.2128 38.024 48.0448 37.772C47.8768 37.5107 47.7928 37.1653 47.7928 36.736C47.7928 36.288 47.9188 35.896 48.1708 35.56C48.4228 35.224 48.7774 34.9673 49.2348 34.79C49.7014 34.6033 50.2521 34.51 50.8868 34.51C51.3721 34.51 51.8621 34.5707 52.3568 34.692C52.8608 34.804 53.2714 34.9673 53.5888 35.182L53.0148 36.246C52.6788 36.022 52.3288 35.868 51.9648 35.784C51.6008 35.7 51.2368 35.658 50.8728 35.658C50.2848 35.658 49.8461 35.756 49.5568 35.952C49.2674 36.1387 49.1228 36.3813 49.1228 36.68C49.1228 36.932 49.2068 37.128 49.3748 37.268C49.5521 37.3987 49.7761 37.5013 50.0468 37.576C50.3268 37.6507 50.6348 37.716 50.9708 37.772C51.3068 37.8187 51.6428 37.884 51.9788 37.968C52.3148 38.0427 52.6181 38.15 52.8888 38.29C53.1688 38.43 53.3928 38.626 53.5608 38.878C53.7381 39.13 53.8268 39.466 53.8268 39.886C53.8268 40.334 53.6961 40.7213 53.4348 41.048C53.1734 41.3747 52.8048 41.6313 52.3288 41.818C51.8528 41.9953 51.2834 42.084 50.6208 42.084ZM58.6284 42.084C57.9938 42.084 57.4338 41.9673 56.9484 41.734C56.4724 41.5007 56.0991 41.146 55.8284 40.67C55.5671 40.1847 55.4364 39.578 55.4364 38.85V34.58H56.7804V38.696C56.7804 39.424 56.9531 39.97 57.2984 40.334C57.6531 40.698 58.1478 40.88 58.7824 40.88C59.2491 40.88 59.6551 40.7867 60.0004 40.6C60.3458 40.404 60.6118 40.124 60.7984 39.76C60.9851 39.3867 61.0784 38.9387 61.0784 38.416V34.58H62.4224V42H61.1484V39.998L61.3584 40.53C61.1158 41.0247 60.7518 41.4073 60.2664 41.678C59.7811 41.9487 59.2351 42.084 58.6284 42.084ZM64.981 42V31.612H66.325V42H64.981ZM71.6169 42.084C70.8703 42.084 70.2916 41.8833 69.8809 41.482C69.4703 41.0807 69.2649 40.5067 69.2649 39.76V32.956H70.6089V39.704C70.6089 40.1053 70.7069 40.4133 70.9029 40.628C71.1083 40.8427 71.3976 40.95 71.7709 40.95C72.1909 40.95 72.5409 40.8333 72.8209 40.6L73.2409 41.566C73.0356 41.7433 72.7883 41.874 72.4989 41.958C72.2189 42.042 71.9249 42.084 71.6169 42.084ZM68.0049 35.686V34.58H72.7369V35.686H68.0049ZM83.2316 42V40.432L83.1616 40.138V37.464C83.1616 36.8947 82.9936 36.456 82.6576 36.148C82.3309 35.8307 81.8362 35.672 81.1736 35.672C80.7349 35.672 80.3056 35.7467 79.8856 35.896C79.4656 36.036 79.1109 36.2273 78.8216 36.47L78.2616 35.462C78.6442 35.154 79.1016 34.9207 79.6336 34.762C80.1749 34.594 80.7396 34.51 81.3276 34.51C82.3449 34.51 83.1289 34.7573 83.6796 35.252C84.2302 35.7467 84.5056 36.5027 84.5056 37.52V42H83.2316ZM80.7956 42.084C80.2449 42.084 79.7596 41.9907 79.3396 41.804C78.9289 41.6173 78.6116 41.3607 78.3876 41.034C78.1636 40.698 78.0516 40.32 78.0516 39.9C78.0516 39.4987 78.1449 39.1347 78.3316 38.808C78.5276 38.4813 78.8402 38.22 79.2696 38.024C79.7082 37.828 80.2962 37.73 81.0336 37.73H83.3856V38.696H81.0896C80.4176 38.696 79.9649 38.808 79.7316 39.032C79.4982 39.256 79.3816 39.5267 79.3816 39.844C79.3816 40.208 79.5262 40.502 79.8156 40.726C80.1049 40.9407 80.5062 41.048 81.0196 41.048C81.5236 41.048 81.9622 40.936 82.3356 40.712C82.7182 40.488 82.9936 40.1613 83.1616 39.732L83.4276 40.656C83.2502 41.0947 82.9376 41.4447 82.4896 41.706C82.0416 41.958 81.4769 42.084 80.7956 42.084ZM90.9485 42V32.2H94.7705C95.6292 32.2 96.3618 32.3353 96.9685 32.606C97.5752 32.8767 98.0418 33.2687 98.3685 33.782C98.6952 34.2953 98.8585 34.9067 98.8585 35.616C98.8585 36.3253 98.6952 36.9367 98.3685 37.45C98.0418 37.954 97.5752 38.346 96.9685 38.626C96.3618 38.8967 95.6292 39.032 94.7705 39.032H91.7185L92.3485 38.374V42H90.9485ZM92.3485 38.514L91.7185 37.814H94.7285C95.6245 37.814 96.3012 37.6227 96.7585 37.24C97.2252 36.8573 97.4585 36.316 97.4585 35.616C97.4585 34.916 97.2252 34.3747 96.7585 33.992C96.3012 33.6093 95.6245 33.418 94.7285 33.418H91.7185L92.3485 32.718V38.514ZM100.596 42V34.58H101.884V36.596L101.758 36.092C101.964 35.5787 102.309 35.1867 102.794 34.916C103.28 34.6453 103.877 34.51 104.586 34.51V35.812C104.53 35.8027 104.474 35.798 104.418 35.798C104.372 35.798 104.325 35.798 104.278 35.798C103.56 35.798 102.99 36.0127 102.57 36.442C102.15 36.8713 101.94 37.492 101.94 38.304V42H100.596ZM109.352 42.084C108.606 42.084 107.943 41.9207 107.364 41.594C106.786 41.2673 106.328 40.8193 105.992 40.25C105.656 39.6713 105.488 39.018 105.488 38.29C105.488 37.5527 105.656 36.8993 105.992 36.33C106.328 35.7607 106.786 35.3173 107.364 35C107.943 34.6733 108.606 34.51 109.352 34.51C110.09 34.51 110.748 34.6733 111.326 35C111.914 35.3173 112.372 35.7607 112.698 36.33C113.034 36.89 113.202 37.5433 113.202 38.29C113.202 39.0273 113.034 39.6807 112.698 40.25C112.372 40.8193 111.914 41.2673 111.326 41.594C110.748 41.9207 110.09 42.084 109.352 42.084ZM109.352 40.908C109.828 40.908 110.253 40.8007 110.626 40.586C111.009 40.3713 111.308 40.068 111.522 39.676C111.737 39.2747 111.844 38.8127 111.844 38.29C111.844 37.758 111.737 37.3007 111.522 36.918C111.308 36.526 111.009 36.2227 110.626 36.008C110.253 35.7933 109.828 35.686 109.352 35.686C108.876 35.686 108.452 35.7933 108.078 36.008C107.705 36.2227 107.406 36.526 107.182 36.918C106.958 37.3007 106.846 37.758 106.846 38.29C106.846 38.8127 106.958 39.2747 107.182 39.676C107.406 40.068 107.705 40.3713 108.078 40.586C108.452 40.8007 108.876 40.908 109.352 40.908ZM115.257 42V33.922C115.257 33.194 115.467 32.6153 115.887 32.186C116.316 31.7473 116.923 31.528 117.707 31.528C117.996 31.528 118.272 31.5653 118.533 31.64C118.804 31.7053 119.032 31.8127 119.219 31.962L118.813 32.984C118.673 32.872 118.514 32.788 118.337 32.732C118.16 32.6667 117.973 32.634 117.777 32.634C117.385 32.634 117.086 32.746 116.881 32.97C116.676 33.1847 116.573 33.5067 116.573 33.936V34.93L116.601 35.546V42H115.257ZM113.997 35.686V34.58H118.729V35.686H113.997ZM123.191 42.084C122.398 42.084 121.698 41.9207 121.091 41.594C120.494 41.2673 120.027 40.8193 119.691 40.25C119.365 39.6807 119.201 39.0273 119.201 38.29C119.201 37.5527 119.36 36.8993 119.677 36.33C120.004 35.7607 120.447 35.3173 121.007 35C121.577 34.6733 122.216 34.51 122.925 34.51C123.644 34.51 124.279 34.6687 124.829 34.986C125.38 35.3033 125.809 35.7513 126.117 36.33C126.435 36.8993 126.593 37.5667 126.593 38.332C126.593 38.388 126.589 38.4533 126.579 38.528C126.579 38.6027 126.575 38.6727 126.565 38.738H120.251V37.772H125.865L125.319 38.108C125.329 37.632 125.231 37.2073 125.025 36.834C124.82 36.4607 124.535 36.1713 124.171 35.966C123.817 35.7513 123.401 35.644 122.925 35.644C122.459 35.644 122.043 35.7513 121.679 35.966C121.315 36.1713 121.031 36.4653 120.825 36.848C120.62 37.2213 120.517 37.6507 120.517 38.136V38.36C120.517 38.8547 120.629 39.298 120.853 39.69C121.087 40.0727 121.409 40.3713 121.819 40.586C122.23 40.8007 122.701 40.908 123.233 40.908C123.672 40.908 124.069 40.8333 124.423 40.684C124.787 40.5347 125.105 40.3107 125.375 40.012L126.117 40.88C125.781 41.272 125.361 41.5707 124.857 41.776C124.363 41.9813 123.807 42.084 123.191 42.084ZM130.588 42.084C129.972 42.084 129.384 42 128.824 41.832C128.273 41.664 127.839 41.4587 127.522 41.216L128.082 40.152C128.399 40.3667 128.791 40.5487 129.258 40.698C129.724 40.8473 130.2 40.922 130.686 40.922C131.311 40.922 131.759 40.8333 132.03 40.656C132.31 40.4787 132.45 40.2313 132.45 39.914C132.45 39.6807 132.366 39.4987 132.198 39.368C132.03 39.2373 131.806 39.1393 131.526 39.074C131.255 39.0087 130.952 38.9527 130.616 38.906C130.28 38.85 129.944 38.7847 129.608 38.71C129.272 38.626 128.964 38.514 128.684 38.374C128.404 38.2247 128.18 38.024 128.012 37.772C127.844 37.5107 127.76 37.1653 127.76 36.736C127.76 36.288 127.886 35.896 128.138 35.56C128.39 35.224 128.744 34.9673 129.202 34.79C129.668 34.6033 130.219 34.51 130.854 34.51C131.339 34.51 131.829 34.5707 132.324 34.692C132.828 34.804 133.238 34.9673 133.556 35.182L132.982 36.246C132.646 36.022 132.296 35.868 131.932 35.784C131.568 35.7 131.204 35.658 130.84 35.658C130.252 35.658 129.813 35.756 129.524 35.952C129.234 36.1387 129.09 36.3813 129.09 36.68C129.09 36.932 129.174 37.128 129.342 37.268C129.519 37.3987 129.743 37.5013 130.014 37.576C130.294 37.6507 130.602 37.716 130.938 37.772C131.274 37.8187 131.61 37.884 131.946 37.968C132.282 38.0427 132.585 38.15 132.856 38.29C133.136 38.43 133.36 38.626 133.528 38.878C133.705 39.13 133.794 39.466 133.794 39.886C133.794 40.334 133.663 40.7213 133.402 41.048C133.14 41.3747 132.772 41.6313 132.296 41.818C131.82 41.9953 131.25 42.084 130.588 42.084ZM137.601 42.084C136.985 42.084 136.397 42 135.837 41.832C135.287 41.664 134.853 41.4587 134.535 41.216L135.095 40.152C135.413 40.3667 135.805 40.5487 136.271 40.698C136.738 40.8473 137.214 40.922 137.699 40.922C138.325 40.922 138.773 40.8333 139.043 40.656C139.323 40.4787 139.463 40.2313 139.463 39.914C139.463 39.6807 139.379 39.4987 139.211 39.368C139.043 39.2373 138.819 39.1393 138.539 39.074C138.269 39.0087 137.965 38.9527 137.629 38.906C137.293 38.85 136.957 38.7847 136.621 38.71C136.285 38.626 135.977 38.514 135.697 38.374C135.417 38.2247 135.193 38.024 135.025 37.772C134.857 37.5107 134.773 37.1653 134.773 36.736C134.773 36.288 134.899 35.896 135.151 35.56C135.403 35.224 135.758 34.9673 136.215 34.79C136.682 34.6033 137.233 34.51 137.867 34.51C138.353 34.51 138.843 34.5707 139.337 34.692C139.841 34.804 140.252 34.9673 140.569 35.182L139.995 36.246C139.659 36.022 139.309 35.868 138.945 35.784C138.581 35.7 138.217 35.658 137.853 35.658C137.265 35.658 136.827 35.756 136.537 35.952C136.248 36.1387 136.103 36.3813 136.103 36.68C136.103 36.932 136.187 37.128 136.355 37.268C136.533 37.3987 136.757 37.5013 137.027 37.576C137.307 37.6507 137.615 37.716 137.951 37.772C138.287 37.8187 138.623 37.884 138.959 37.968C139.295 38.0427 139.599 38.15 139.869 38.29C140.149 38.43 140.373 38.626 140.541 38.878C140.719 39.13 140.807 39.466 140.807 39.886C140.807 40.334 140.677 40.7213 140.415 41.048C140.154 41.3747 139.785 41.6313 139.309 41.818C138.833 41.9953 138.264 42.084 137.601 42.084ZM142.487 42V34.58H143.831V42H142.487ZM143.159 33.152C142.898 33.152 142.678 33.068 142.501 32.9C142.333 32.732 142.249 32.5267 142.249 32.284C142.249 32.032 142.333 31.822 142.501 31.654C142.678 31.486 142.898 31.402 143.159 31.402C143.42 31.402 143.635 31.486 143.803 31.654C143.98 31.8127 144.069 32.0133 144.069 32.256C144.069 32.508 143.985 32.7227 143.817 32.9C143.649 33.068 143.43 33.152 143.159 33.152ZM149.575 42.084C148.828 42.084 148.166 41.9207 147.587 41.594C147.008 41.2673 146.551 40.8193 146.215 40.25C145.879 39.6713 145.711 39.018 145.711 38.29C145.711 37.5527 145.879 36.8993 146.215 36.33C146.551 35.7607 147.008 35.3173 147.587 35C148.166 34.6733 148.828 34.51 149.575 34.51C150.312 34.51 150.97 34.6733 151.549 35C152.137 35.3173 152.594 35.7607 152.921 36.33C153.257 36.89 153.425 37.5433 153.425 38.29C153.425 39.0273 153.257 39.6807 152.921 40.25C152.594 40.8193 152.137 41.2673 151.549 41.594C150.97 41.9207 150.312 42.084 149.575 42.084ZM149.575 40.908C150.051 40.908 150.476 40.8007 150.849 40.586C151.232 40.3713 151.53 40.068 151.745 39.676C151.96 39.2747 152.067 38.8127 152.067 38.29C152.067 37.758 151.96 37.3007 151.745 36.918C151.53 36.526 151.232 36.2227 150.849 36.008C150.476 35.7933 150.051 35.686 149.575 35.686C149.099 35.686 148.674 35.7933 148.301 36.008C147.928 36.2227 147.629 36.526 147.405 36.918C147.181 37.3007 147.069 37.758 147.069 38.29C147.069 38.8127 147.181 39.2747 147.405 39.676C147.629 40.068 147.928 40.3713 148.301 40.586C148.674 40.8007 149.099 40.908 149.575 40.908ZM159.246 34.51C159.852 34.51 160.384 34.6267 160.842 34.86C161.308 35.0933 161.672 35.448 161.934 35.924C162.195 36.4 162.326 37.002 162.326 37.73V42H160.982V37.884C160.982 37.1653 160.804 36.624 160.45 36.26C160.104 35.896 159.614 35.714 158.98 35.714C158.504 35.714 158.088 35.8073 157.734 35.994C157.379 36.1807 157.104 36.456 156.908 36.82C156.721 37.184 156.628 37.6367 156.628 38.178V42H155.284V34.58H156.572V36.582L156.362 36.05C156.604 35.5647 156.978 35.1867 157.482 34.916C157.986 34.6453 158.574 34.51 159.246 34.51ZM169.419 42V40.432L169.349 40.138V37.464C169.349 36.8947 169.181 36.456 168.845 36.148C168.518 35.8307 168.024 35.672 167.361 35.672C166.922 35.672 166.493 35.7467 166.073 35.896C165.653 36.036 165.298 36.2273 165.009 36.47L164.449 35.462C164.832 35.154 165.289 34.9207 165.821 34.762C166.362 34.594 166.927 34.51 167.515 34.51C168.532 34.51 169.316 34.7573 169.867 35.252C170.418 35.7467 170.693 36.5027 170.693 37.52V42H169.419ZM166.983 42.084C166.432 42.084 165.947 41.9907 165.527 41.804C165.116 41.6173 164.799 41.3607 164.575 41.034C164.351 40.698 164.239 40.32 164.239 39.9C164.239 39.4987 164.332 39.1347 164.519 38.808C164.715 38.4813 165.028 38.22 165.457 38.024C165.896 37.828 166.484 37.73 167.221 37.73H169.573V38.696H167.277C166.605 38.696 166.152 38.808 165.919 39.032C165.686 39.256 165.569 39.5267 165.569 39.844C165.569 40.208 165.714 40.502 166.003 40.726C166.292 40.9407 166.694 41.048 167.207 41.048C167.711 41.048 168.15 40.936 168.523 40.712C168.906 40.488 169.181 40.1613 169.349 39.732L169.615 40.656C169.438 41.0947 169.125 41.4447 168.677 41.706C168.229 41.958 167.664 42.084 166.983 42.084ZM173.18 42V31.612H174.524V42H173.18Z" fill="#1E1E1E"/>
<rect x="133" y="119" width="92" height="19" rx="4" fill="#356020"/>
<path d="M144.05 132V125H147.19C147.997 125 148.617 125.163 149.05 125.49C149.483 125.81 149.7 126.25 149.7 126.81C149.7 127.19 149.613 127.51 149.44 127.77C149.273 128.03 149.047 128.23 148.76 128.37C148.473 128.51 148.163 128.58 147.83 128.58L148.01 128.28C148.41 128.28 148.763 128.35 149.07 128.49C149.377 128.63 149.62 128.837 149.8 129.11C149.98 129.377 150.07 129.71 150.07 130.11C150.07 130.71 149.843 131.177 149.39 131.51C148.943 131.837 148.277 132 147.39 132H144.05ZM145.05 131.19H147.35C147.903 131.19 148.327 131.097 148.62 130.91C148.913 130.723 149.06 130.43 149.06 130.03C149.06 129.623 148.913 129.327 148.62 129.14C148.327 128.953 147.903 128.86 147.35 128.86H144.96V128.05H147.1C147.607 128.05 148 127.957 148.28 127.77C148.56 127.583 148.7 127.303 148.7 126.93C148.7 126.557 148.56 126.277 148.28 126.09C148 125.903 147.607 125.81 147.1 125.81H145.05V131.19ZM153.748 132.06C153.215 132.06 152.742 131.943 152.328 131.71C151.915 131.477 151.588 131.157 151.348 130.75C151.108 130.337 150.988 129.87 150.988 129.35C150.988 128.823 151.108 128.357 151.348 127.95C151.588 127.543 151.915 127.227 152.328 127C152.742 126.767 153.215 126.65 153.748 126.65C154.275 126.65 154.745 126.767 155.158 127C155.578 127.227 155.905 127.543 156.138 127.95C156.378 128.35 156.498 128.817 156.498 129.35C156.498 129.877 156.378 130.343 156.138 130.75C155.905 131.157 155.578 131.477 155.158 131.71C154.745 131.943 154.275 132.06 153.748 132.06ZM153.748 131.22C154.088 131.22 154.392 131.143 154.658 130.99C154.932 130.837 155.145 130.62 155.298 130.34C155.452 130.053 155.528 129.723 155.528 129.35C155.528 128.97 155.452 128.643 155.298 128.37C155.145 128.09 154.932 127.873 154.658 127.72C154.392 127.567 154.088 127.49 153.748 127.49C153.408 127.49 153.105 127.567 152.838 127.72C152.572 127.873 152.358 128.09 152.198 128.37C152.038 128.643 151.958 128.97 151.958 129.35C151.958 129.723 152.038 130.053 152.198 130.34C152.358 130.62 152.572 130.837 152.838 130.99C153.105 131.143 153.408 131.22 153.748 131.22ZM160.096 132.06C159.563 132.06 159.089 131.943 158.676 131.71C158.263 131.477 157.936 131.157 157.696 130.75C157.456 130.337 157.336 129.87 157.336 129.35C157.336 128.823 157.456 128.357 157.696 127.95C157.936 127.543 158.263 127.227 158.676 127C159.089 126.767 159.563 126.65 160.096 126.65C160.623 126.65 161.093 126.767 161.506 127C161.926 127.227 162.253 127.543 162.486 127.95C162.726 128.35 162.846 128.817 162.846 129.35C162.846 129.877 162.726 130.343 162.486 130.75C162.253 131.157 161.926 131.477 161.506 131.71C161.093 131.943 160.623 132.06 160.096 132.06ZM160.096 131.22C160.436 131.22 160.739 131.143 161.006 130.99C161.279 130.837 161.493 130.62 161.646 130.34C161.799 130.053 161.876 129.723 161.876 129.35C161.876 128.97 161.799 128.643 161.646 128.37C161.493 128.09 161.279 127.873 161.006 127.72C160.739 127.567 160.436 127.49 160.096 127.49C159.756 127.49 159.453 127.567 159.186 127.72C158.919 127.873 158.706 128.09 158.546 128.37C158.386 128.643 158.306 128.97 158.306 129.35C158.306 129.723 158.386 130.053 158.546 130.34C158.706 130.62 158.919 130.837 159.186 130.99C159.453 131.143 159.756 131.22 160.096 131.22ZM164.954 130.72L164.974 129.49L168.024 126.7H169.184L166.844 129L166.324 129.44L164.954 130.72ZM164.174 132V124.58H165.134V132H164.174ZM168.224 132L166.144 129.42L166.764 128.65L169.404 132H168.224ZM176.311 132V130.88L176.261 130.67V128.76C176.261 128.353 176.141 128.04 175.901 127.82C175.668 127.593 175.315 127.48 174.841 127.48C174.528 127.48 174.221 127.533 173.921 127.64C173.621 127.74 173.368 127.877 173.161 128.05L172.761 127.33C173.035 127.11 173.361 126.943 173.741 126.83C174.128 126.71 174.531 126.65 174.951 126.65C175.678 126.65 176.238 126.827 176.631 127.18C177.025 127.533 177.221 128.073 177.221 128.8V132H176.311ZM174.571 132.06C174.178 132.06 173.831 131.993 173.531 131.86C173.238 131.727 173.011 131.543 172.851 131.31C172.691 131.07 172.611 130.8 172.611 130.5C172.611 130.213 172.678 129.953 172.811 129.72C172.951 129.487 173.175 129.3 173.481 129.16C173.795 129.02 174.215 128.95 174.741 128.95H176.421V129.64H174.781C174.301 129.64 173.978 129.72 173.811 129.88C173.645 130.04 173.561 130.233 173.561 130.46C173.561 130.72 173.665 130.93 173.871 131.09C174.078 131.243 174.365 131.32 174.731 131.32C175.091 131.32 175.405 131.24 175.671 131.08C175.945 130.92 176.141 130.687 176.261 130.38L176.451 131.04C176.325 131.353 176.101 131.603 175.781 131.79C175.461 131.97 175.058 132.06 174.571 132.06ZM183.993 132.06C183.453 132.06 182.97 131.943 182.543 131.71C182.123 131.477 181.793 131.157 181.553 130.75C181.313 130.343 181.193 129.877 181.193 129.35C181.193 128.823 181.313 128.357 181.553 127.95C181.793 127.543 182.123 127.227 182.543 127C182.97 126.767 183.453 126.65 183.993 126.65C184.473 126.65 184.9 126.747 185.273 126.94C185.653 127.127 185.947 127.407 186.153 127.78L185.423 128.25C185.25 127.99 185.037 127.8 184.783 127.68C184.537 127.553 184.27 127.49 183.983 127.49C183.637 127.49 183.327 127.567 183.053 127.72C182.78 127.873 182.563 128.09 182.403 128.37C182.243 128.643 182.163 128.97 182.163 129.35C182.163 129.73 182.243 130.06 182.403 130.34C182.563 130.62 182.78 130.837 183.053 130.99C183.327 131.143 183.637 131.22 183.983 131.22C184.27 131.22 184.537 131.16 184.783 131.04C185.037 130.913 185.25 130.72 185.423 130.46L186.153 130.92C185.947 131.287 185.653 131.57 185.273 131.77C184.9 131.963 184.473 132.06 183.993 132.06ZM190.686 132V130.88L190.636 130.67V128.76C190.636 128.353 190.516 128.04 190.276 127.82C190.043 127.593 189.69 127.48 189.216 127.48C188.903 127.48 188.596 127.533 188.296 127.64C187.996 127.74 187.743 127.877 187.536 128.05L187.136 127.33C187.41 127.11 187.736 126.943 188.116 126.83C188.503 126.71 188.906 126.65 189.326 126.65C190.053 126.65 190.613 126.827 191.006 127.18C191.4 127.533 191.596 128.073 191.596 128.8V132H190.686ZM188.946 132.06C188.553 132.06 188.206 131.993 187.906 131.86C187.613 131.727 187.386 131.543 187.226 131.31C187.066 131.07 186.986 130.8 186.986 130.5C186.986 130.213 187.053 129.953 187.186 129.72C187.326 129.487 187.55 129.3 187.856 129.16C188.17 129.02 188.59 128.95 189.116 128.95H190.796V129.64H189.156C188.676 129.64 188.353 129.72 188.186 129.88C188.02 130.04 187.936 130.233 187.936 130.46C187.936 130.72 188.04 130.93 188.246 131.09C188.453 131.243 188.74 131.32 189.106 131.32C189.466 131.32 189.78 131.24 190.046 131.08C190.32 130.92 190.516 130.687 190.636 130.38L190.826 131.04C190.7 131.353 190.476 131.603 190.156 131.79C189.836 131.97 189.433 132.06 188.946 132.06ZM193.373 132V124.58H194.333V132H193.373ZM196.166 132V124.58H197.126V132H196.166Z" fill="white"/>
<path d="M213.391 129.497L214.533 130.639C214.791 130.896 214.791 131.314 214.533 131.572C213.14 132.965 210.934 133.122 209.358 131.94L209.266 131.871C208.077 130.979 207.021 129.923 206.129 128.734L206.06 128.642C204.878 127.066 205.035 124.86 206.428 123.467C206.686 123.209 207.104 123.209 207.361 123.467L208.503 124.609C208.894 124.999 208.894 125.632 208.503 126.023L207.763 126.763C207.59 126.936 207.548 127.2 207.657 127.419C208.29 128.684 209.316 129.71 210.581 130.343C210.8 130.452 211.064 130.41 211.237 130.237L211.977 129.497C212.368 129.106 213.001 129.106 213.391 129.497Z" fill="white"/>
<path d="M70.9068 167.266H67.9507L54.0273 128.479H56.9835L70.9068 167.266Z" fill="#B58E67"/>
<path d="M47.0654 167.266H50.0216L53.5022 128.479H50.546L47.0654 167.266Z" fill="#B58E67"/>
<path d="M29.6611 167.266H32.6173L46.5406 128.479H43.5845L29.6611 167.266Z" fill="#B58E67"/>
<path d="M57.9458 101.04H33.4042C32.881 101.04 32.457 101.464 32.457 101.987V127.32C32.457 128.152 33.1316 128.827 33.9639 128.827H60.2439V103.338C60.2439 102.069 59.2148 101.04 57.9458 101.04Z" fill="#FFB84F"/>
<path d="M67.8463 132.527H44.5518V128.827H67.8463C68.8682 128.827 69.6967 129.655 69.6967 130.677C69.6967 131.698 68.8682 132.527 67.8463 132.527Z" fill="#FFB84F"/>
<path d="M34.4548 124.851V102.606C34.4548 101.741 33.7535 101.04 32.8885 101.04C32.0236 101.04 31.3223 101.741 31.3223 102.606V125.144C31.3223 129.222 34.6278 132.527 38.7054 132.527H44.13C45.1519 132.527 45.9804 131.699 45.9804 130.677C45.9804 129.655 45.1519 128.826 44.13 128.826H38.4306C36.2347 128.827 34.4548 127.047 34.4548 124.851Z" fill="#FFD788"/>
<path d="M59.5787 128.478H47.0953C41.2547 128.478 37.1042 122.794 38.8824 117.23L40.9439 110.782L59.2518 108.57L59.5787 128.478Z" fill="#B7C9B9"/>
<path d="M61.4425 84.5171L66.7052 103.264H61.4425L55.9072 93.8905L61.4425 84.5171Z" fill="#EFEBDF"/>
<path d="M66.4634 102.403L79.9593 105.013L79.5934 106.138C79.5934 106.138 67.6171 108.993 61.4424 103.264L66.4634 102.403Z" fill="#E89458"/>
<path d="M79.9597 105.013L85.7651 104.486L84.1564 105.934C82.8797 107.084 80.9679 107.169 79.5938 106.138L79.9597 105.013Z" fill="#E89458"/>
<path d="M85.7647 104.485L86.8192 106.857C86.8192 106.857 85.2881 107.204 85.3148 104.89L85.7647 104.485Z" fill="#E89458"/>
<path d="M84.4816 104.794L85.4377 107.298C85.4377 107.298 83.6704 107.495 84.4816 104.794Z" fill="#E89458"/>
<path d="M85.7649 104.485L87.7382 106.047C87.7382 106.047 86.4072 106.75 85.6279 104.794L85.7649 104.485Z" fill="#E89458"/>
<path d="M82.9599 106.17H58.4434V107.912H82.9599V106.17Z" fill="white"/>
<path d="M61.4429 84.5169L55.6197 82.1675H48.7458L39.958 84.7802L43.9093 101.477L40.3048 110.489H57.3259L56.0208 101.06L56.0755 100.894C56.3872 99.9428 57.0893 99.1877 57.9831 98.7378C59.5053 97.9717 60.3872 96.9392 60.5118 95.8411C60.5669 95.3539 60.5224 94.7921 60.4126 94.1985C59.9161 91.5218 60.0509 88.7649 60.8989 86.1781L61.4429 84.5169Z" fill="white"/>
<path d="M58.2898 99.2468C59.2408 98.7677 60.082 97.7302 60.3466 96.4883C60.3466 96.4883 58.2597 98.3632 51.022 97.689C42.673 96.911 47.881 103.081 44.8994 110.489H57.3252L56.0201 101.06L56.0748 100.894C56.3868 99.943 57.3964 99.6971 58.2898 99.2468Z" fill="#EFEBDF"/>
<path d="M54.5625 86.7685L48.7461 82.1681L51.8277 75.9302H57.054L54.5625 86.7685Z" fill="#E89F78"/>
<path d="M55.7824 81.4596L52.9365 77.9094L57.0536 75.9302L55.7824 81.4596Z" fill="#E89458"/>
<path d="M51.5342 63.124C51.5342 63.124 52.8995 62 54.6069 62C56.0977 62 59.9281 63.5739 61.3523 67.1715C62.7765 70.7692 63.3142 73.8118 61.8925 77.889L55.6054 75.9301L51.5342 63.124Z" fill="#383838"/>
<path d="M61.2373 72.181C61.5239 75.4224 60.4567 79.3953 57.2152 79.6819C53.9738 79.9686 49.1355 76.1127 48.8489 72.8712C48.5622 69.6297 48.282 64.2407 52.6772 63.8523C59.0656 63.2876 60.9507 68.9391 61.2373 72.181Z" fill="#E89F78"/>
<path d="M58.6797 69.5692C58.6797 69.5692 59.582 69.0994 60.3112 69.732" stroke="#383838" stroke-miterlimit="10"/>
<path d="M48.4382 72.3621C48.4382 72.3621 56.0676 72.2752 57.7505 65.6167C57.7505 65.6167 58.9114 65.816 60.5111 67.6125C60.5111 67.6125 59.7445 63.6777 53.3862 63.6777C46.9016 63.6773 48.4382 72.3621 48.4382 72.3621Z" fill="#383838"/>
<path d="M57.6322 65.1172C57.6322 65.1172 58.889 70.3027 50.749 72.0309" stroke="#383838" stroke-miterlimit="10"/>
<path d="M51.5346 71.1556C51.5346 71.1556 50.2813 75.12 52.1685 78.8868C52.1685 78.8868 45.9709 79.6975 41.8844 75.12C41.7839 70.9889 43.8479 66.98 46.4424 64.3143C48.6133 62.0841 54.7795 61.3565 56.3436 65.6173C56.3436 65.6173 52.0918 65.493 51.5346 71.1556Z" fill="#383838"/>
<path d="M62.4972 78.1675C62.4972 78.1675 65.3867 70.0767 59.0742 64.6533" stroke="#383838" stroke-miterlimit="10"/>
<path d="M41.248 74.5226C41.248 74.5226 41.8806 62.0002 52.6286 62.9199" stroke="#383838" stroke-miterlimit="10"/>
<path d="M59.1993 75.1196C59.1993 75.1196 57.6907 75.2701 55.4512 75.1196C55.4512 75.1196 56.59 76.5184 58.278 76.3764C58.6664 76.3437 59.1993 75.1196 59.1993 75.1196Z" fill="white"/>
<path d="M55.4513 72.8715C55.7033 72.8715 55.9076 72.5023 55.9076 72.0468C55.9076 71.5914 55.7033 71.2222 55.4513 71.2222C55.1994 71.2222 54.9951 71.5914 54.9951 72.0468C54.9951 72.5023 55.1994 72.8715 55.4513 72.8715Z" fill="#383838"/>
<path d="M59.5304 72.3623C59.7824 72.3623 59.9867 71.993 59.9867 71.5376C59.9867 71.0821 59.7824 70.7129 59.5304 70.7129C59.2785 70.7129 59.0742 71.0821 59.0742 71.5376C59.0742 71.993 59.2785 72.3623 59.5304 72.3623Z" fill="#383838"/>
<path d="M58.0885 72.0469C58.0885 72.0469 58.4361 73.4287 60.0634 73.3231C60.0634 73.3231 58.0041 75.9595 58.0885 72.0469Z" fill="#EA8C64"/>
<path d="M50.6519 76.0554C51.6266 75.6868 52.0322 74.3709 51.5578 73.1163C51.0834 71.8616 49.9086 71.1433 48.9339 71.5118C47.9591 71.8804 47.5535 73.1963 48.028 74.451C48.5024 75.7057 49.6772 76.424 50.6519 76.0554Z" fill="#E89F78"/>
<path d="M49.5945 67.1079H48.6748V72.031H49.5945V67.1079Z" fill="#709480"/>
<path d="M48.9822 67.1079H48.0625V72.031H48.9822V67.1079Z" fill="#B4C6B6"/>
<path d="M50.1189 68.218V65.8343C50.1189 64.8154 50.7206 63.802 51.5927 63.2759C52.0485 63.0007 53.34 62.1968 53.34 62.1968C53.34 62.1968 51.0992 62.1989 50.1036 62.5809L49.8416 62.6814C48.7892 63.0855 48.0947 64.0963 48.0947 65.2233V68.218H50.1189Z" fill="#709480"/>
<path d="M49.5066 68.2181V65.8344C49.5066 64.8155 50.0752 63.8823 50.9804 63.415L53.3404 62.1969L52.6183 62.1362C51.5558 62.0468 50.4869 62.199 49.4913 62.5814L49.2293 62.6819C48.1769 63.086 47.4824 64.0968 47.4824 65.2238V68.2185H49.5066V68.2181Z" fill="#B4C6B6"/>
<path d="M48.9315 75.7697C50.3693 75.7697 51.5348 74.6041 51.5348 73.1663C51.5348 71.7286 50.3693 70.563 48.9315 70.563C47.4937 70.563 46.3281 71.7286 46.3281 73.1663C46.3281 74.6041 47.4937 75.7697 48.9315 75.7697Z" fill="#B4C6B6"/>
<path d="M48.4188 75.7697C49.8566 75.7697 51.0222 74.6041 51.0222 73.1663C51.0222 71.7286 49.8566 70.563 48.4188 70.563C46.981 70.563 45.8154 71.7286 45.8154 73.1663C45.8154 74.6041 46.981 75.7697 48.4188 75.7697Z" fill="#F1EADF"/>
<path d="M48.4184 74.7997C49.3204 74.7997 50.0517 74.0685 50.0517 73.1665C50.0517 72.2644 49.3204 71.5332 48.4184 71.5332C47.5164 71.5332 46.7852 72.2644 46.7852 73.1665C46.7852 74.0685 47.5164 74.7997 48.4184 74.7997Z" fill="#B4C6B6"/>
<path d="M48.4183 73.908C48.8279 73.908 49.1599 73.5759 49.1599 73.1664C49.1599 72.7568 48.8279 72.4248 48.4183 72.4248C48.0088 72.4248 47.6768 72.7568 47.6768 73.1664C47.6768 73.5759 48.0088 73.908 48.4183 73.908Z" fill="#F1EADF"/>
<path d="M57.6778 78.3778L51.4815 77.665L48.248 73.2923L48.5889 73.04L51.713 77.2648L57.7261 77.9567L57.6778 78.3778Z" fill="#F1EADF"/>
<path d="M57.814 78.5919H56.2936C56.1426 78.5919 56.0205 78.4698 56.0205 78.3188V77.7223C56.0205 77.5713 56.1426 77.4492 56.2936 77.4492H57.814C57.965 77.4492 58.0871 77.5713 58.0871 77.7223V78.3188C58.0871 78.4698 57.965 78.5919 57.814 78.5919Z" fill="#B4C6B6"/>
<path d="M44.3511 94.8369L43.1648 98.3332L42.4609 95.916L44.3511 94.8369Z" fill="#EFEBDF"/>
<path d="M39.9579 84.7803L32.459 103.489H38.6541L44.3509 94.8367L39.9579 84.7803Z" fill="white"/>
<path d="M72.9905 107.912H67.6172C67.6172 106.428 68.8201 105.225 70.3041 105.225C71.7877 105.225 72.9905 106.428 72.9905 107.912Z" fill="#B7C9B9"/>
<path d="M39.5394 102.145L65.6183 105.013L65.2524 106.138C65.2524 106.138 44.8996 113.09 32.459 103.489L39.5394 102.145Z" fill="#EA8C64"/>
<path d="M65.6179 105.013L71.4233 104.486L69.8146 105.934C68.538 107.084 66.6261 107.169 65.252 106.138L65.6179 105.013Z" fill="#EA8C64"/>
<path d="M71.4238 104.485L72.4783 106.857C72.4783 106.857 70.9473 107.204 70.974 104.89L71.4238 104.485Z" fill="#EA8C64"/>
<path d="M70.1396 104.794L71.0957 107.298C71.0957 107.298 69.3289 107.495 70.1396 104.794Z" fill="#EA8C64"/>
<path d="M71.4241 104.485L73.3974 106.047C73.3974 106.047 72.0664 106.75 71.2871 104.794L71.4241 104.485Z" fill="#EA8C64"/>
<path d="M95.5826 100.309H71.6944C70.1986 100.309 69.0101 99.0522 69.094 97.5589L70.0273 82.0447C70.1044 80.665 71.2458 79.5859 72.6277 79.5859H96.5158C98.0117 79.5859 99.2002 80.8431 99.1162 82.3364L98.183 97.8506C98.1058 99.2303 96.9644 100.309 95.5826 100.309Z" fill="#70927F"/>
<path d="M97.0777 100.309H73.1895C71.6937 100.309 70.5052 99.0522 70.5892 97.5589L71.5224 82.0447C71.5995 80.665 72.741 79.5859 74.1228 79.5859H98.0109C99.5068 79.5859 100.695 80.8431 100.611 82.3364L99.6781 97.8506C99.6009 99.2303 98.4595 100.309 97.0777 100.309Z" fill="#A5BBAA"/>
<path d="M88.7851 94.4443H81.3304L84.4603 105.886C84.5629 106.262 84.2806 106.633 83.8909 106.633H76.6172V107.94H85.0065H89.9842C91.232 107.94 92.1381 106.753 91.8104 105.55L88.7851 94.4443ZM88.2127 103.83C87.2816 103.83 86.5269 103.075 86.5269 102.144C86.5269 101.213 87.2816 100.458 88.2127 100.458C89.1438 100.458 89.8986 101.213 89.8986 102.144C89.8986 103.075 89.1438 103.83 88.2127 103.83Z" fill="#70927F"/>
<path d="M87.442 89.9565H83.1736C82.1556 89.9565 81.3301 90.7821 81.3301 91.8001V94.445H89.2856V91.8001C89.2856 90.7816 88.4601 89.9565 87.442 89.9565Z" fill="#70927F"/>
<path d="M88.6676 89.9565H84.3992C83.3812 89.9565 82.5557 90.7821 82.5557 91.8001V94.445H90.5112V91.8001C90.5112 90.7816 89.6857 89.9565 88.6676 89.9565Z" fill="#E3E3E3"/>
<path d="M93.5322 105.445L90.5358 94.4443H82.5557L83.0043 96.092H83.0004L85.815 106.424C86.0164 107.163 85.4868 107.884 84.7384 107.94H85.006H86.2313H89.9553H91.6263C92.9284 107.939 93.8743 106.701 93.5322 105.445ZM88.8254 103.83C87.8943 103.83 87.1395 103.075 87.1395 102.144C87.1395 101.213 87.8943 100.458 88.8254 100.458C89.7565 100.458 90.5112 101.213 90.5112 102.144C90.5112 103.075 89.7565 103.83 88.8254 103.83Z" fill="#E3E3E3"/>
<path d="M88.6676 89.9565H84.3992C83.3812 89.9565 82.5557 90.7821 82.5557 91.8001V94.445H90.5112V91.8001C90.5112 90.7816 89.6857 89.9565 88.6676 89.9565Z" fill="#A5BBAA"/>
<path d="M93.5322 105.445L90.5358 94.4443H82.5557L83.0043 96.092H83.0004L85.815 106.424C86.0164 107.163 85.4868 107.884 84.7384 107.94H85.006H86.2313H89.9553H91.6263C92.9284 107.939 93.8743 106.701 93.5322 105.445ZM88.8254 103.83C87.8943 103.83 87.1395 103.075 87.1395 102.144C87.1395 101.213 87.8943 100.458 88.8254 100.458C89.7565 100.458 90.5112 101.213 90.5112 102.144C90.5112 103.075 89.7565 103.83 88.8254 103.83Z" fill="#A5BBAA"/>
<path d="M93.5324 105.445L90.536 94.4445H90.5114V91.7996C90.5114 90.7816 89.6858 89.9561 88.6678 89.9561H84.3994" stroke="#F3F5F4" stroke-miterlimit="10" stroke-linecap="round" stroke-linejoin="round"/>
<path d="M90.5352 94.4443L93.5316 105.445C93.8737 106.701 92.9278 107.939 91.6257 107.939" stroke="#F3F5F4" stroke-miterlimit="10" stroke-linecap="round" stroke-linejoin="round"/>
<path d="M73.7678 93.4216C73.7644 93.4216 73.7606 93.4216 73.7572 93.4212C73.6537 93.4157 73.5745 93.3266 73.5804 93.2236L74.0947 84.0529C74.1002 83.9494 74.1876 83.8676 74.2923 83.8761C74.3957 83.8816 74.475 83.9706 74.4691 84.0737L73.9548 93.2444C73.9493 93.3444 73.8666 93.4216 73.7678 93.4216Z" fill="#D1CEC7"/>
<path d="M74.9905 93.4216C74.9871 93.4216 74.9832 93.4216 74.9799 93.4212C74.8764 93.4157 74.7971 93.3266 74.803 93.2236L75.3174 84.0529C75.3229 83.9494 75.4094 83.8676 75.5149 83.8761C75.6184 83.8816 75.6977 83.9706 75.6917 84.0737L75.1774 93.2444C75.1719 93.3444 75.0892 93.4216 74.9905 93.4216Z" fill="#D1CEC7"/>
<path d="M76.2121 93.4216C76.2087 93.4216 76.2049 93.4216 76.2015 93.4212C76.0981 93.4157 76.0188 93.3266 76.0247 93.2236L76.539 84.0529C76.5445 83.9494 76.6298 83.8676 76.7366 83.8761C76.8401 83.8816 76.9194 83.9706 76.9134 84.0737L76.3991 93.2444C76.3936 93.3444 76.3109 93.4216 76.2121 93.4216Z" fill="#D1CEC7"/>
<path d="M77.4348 93.4216C77.4314 93.4216 77.4276 93.4216 77.4242 93.4212C77.3207 93.4157 77.2414 93.3266 77.2474 93.2236L77.7617 84.0529C77.7672 83.9494 77.8571 83.8676 77.9593 83.8761C78.0627 83.8816 78.142 83.9706 78.1361 84.0737L77.6218 93.2444C77.6167 93.3444 77.5336 93.4216 77.4348 93.4216Z" fill="#D1CEC7"/>
<path d="M78.6565 93.4216C78.6531 93.4216 78.6493 93.4216 78.6459 93.4212C78.5424 93.4157 78.4631 93.3266 78.4691 93.2236L78.9834 84.0529C78.9889 83.9494 79.0779 83.8676 79.181 83.8761C79.2844 83.8816 79.3637 83.9706 79.3578 84.0737L78.8435 93.2444C78.8384 93.3444 78.7553 93.4216 78.6565 93.4216Z" fill="#D1CEC7"/>
<path d="M92.8391 93.4216C92.8357 93.4216 92.8319 93.4216 92.8285 93.4212C92.725 93.4157 92.6457 93.3266 92.6517 93.2236L93.166 84.0529C93.1715 83.9494 93.2606 83.8676 93.3636 83.8761C93.467 83.8816 93.5463 83.9706 93.5404 84.0737L93.0261 93.2444C93.0206 93.3444 92.9375 93.4216 92.8391 93.4216Z" fill="#D1CEC7"/>
<path d="M94.0608 93.4216C94.0574 93.4216 94.0536 93.4216 94.0502 93.4212C93.9467 93.4157 93.8674 93.3266 93.8734 93.2236L94.3877 84.0529C94.3932 83.9494 94.481 83.8676 94.5853 83.8761C94.6887 83.8816 94.768 83.9706 94.7621 84.0737L94.2478 93.2444C94.2423 93.3444 94.1596 93.4216 94.0608 93.4216Z" fill="#D1CEC7"/>
<path d="M95.2834 93.4216C95.28 93.4216 95.2762 93.4216 95.2728 93.4212C95.1694 93.4157 95.0901 93.3266 95.096 93.2236L95.6103 84.0529C95.6158 83.9494 95.7028 83.8676 95.8079 83.8761C95.9114 83.8816 95.9906 83.9706 95.9847 84.0737L95.4704 93.2444C95.4649 93.3444 95.3822 93.4216 95.2834 93.4216Z" fill="#D1CEC7"/>
<path d="M96.5061 93.4216C96.5027 93.4216 96.4989 93.4216 96.4955 93.4212C96.392 93.4157 96.3127 93.3266 96.3187 93.2236L96.833 84.0529C96.8385 83.9494 96.9241 83.8676 97.0306 83.8761C97.134 83.8816 97.2133 83.9706 97.2074 84.0737L96.6931 93.2444C96.6876 93.3444 96.6049 93.4216 96.5061 93.4216Z" fill="#D1CEC7"/>
<path d="M97.7278 93.4216C97.7244 93.4216 97.7205 93.4216 97.7172 93.4212C97.6137 93.4157 97.5344 93.3266 97.5404 93.2236L98.0547 84.0529C98.0602 83.9494 98.1505 83.8676 98.2522 83.8761C98.3557 83.8816 98.435 83.9706 98.4291 84.0737L97.9147 93.2444C97.9092 93.3444 97.8265 93.4216 97.7278 93.4216Z" fill="#D1CEC7"/>
<path d="M71.3992 115.177H63.0523L58.9336 159.768H60.223C69.9084 133.858 72.6894 122.201 73.4878 117.662C73.7164 116.364 72.717 115.177 71.3992 115.177Z" fill="#B7C9B9"/>
<path d="M59.0918 158.07C59.0918 158.07 68.3388 134.239 65.9576 118.136C65.8063 117.11 63.0537 115.177 63.0537 115.177L59.0918 158.07Z" fill="#A5BBAA"/>
<path d="M63.3176 115.177H56.2301L39.5859 158.07L40.6281 159.768C52.6231 141.332 63.5742 124.97 65.8421 118.802C66.4896 117.043 65.1926 115.177 63.3176 115.177Z" fill="#B7C9B9"/>
<path d="M53.5024 122.619C49.4506 123.612 45.1839 122.204 44.3507 119.664C43.4056 116.784 45.8148 115.177 45.8148 115.177L44.0382 110.409L40.9439 110.783L38.8824 117.231C37.1041 122.795 41.2547 128.479 47.0953 128.479H51.0682L39.5854 158.071C56.8096 130.663 53.5024 122.619 53.5024 122.619Z" fill="#A5BBAA"/>
<path d="M40.7453 111.404H59.2801L59.3615 115.177H39.5391L40.7453 111.404Z" fill="#70927F"/>
<path d="M36.4608 167.266H25.6073C23.8884 167.266 22.4951 165.873 22.4951 164.154V111.404H39.5726V164.154C39.573 165.872 38.1797 167.266 36.4608 167.266Z" fill="#E8DFCF"/>
<path d="M34.0243 167.266H23.1708C21.4519 167.266 20.0586 165.873 20.0586 164.154V111.404H37.136V164.154C37.136 165.872 35.7428 167.266 34.0243 167.266Z" fill="#A5BBAA"/>
<path d="M102.614 167.266H91.7606C90.0417 167.266 88.6484 165.873 88.6484 164.154V111.404H105.726V164.154C105.726 165.872 104.333 167.266 102.614 167.266Z" fill="#E8DFCF"/>
<path d="M100.178 167.266H89.3241C87.6052 167.266 86.2119 165.873 86.2119 164.154V111.404H103.289V164.154C103.29 165.872 101.897 167.266 100.178 167.266Z" fill="#A5BBAA"/>
<path d="M14.9729 113.291H101.604C102.693 113.291 103.577 112.407 103.577 111.318V109.885C103.577 108.796 102.693 107.913 101.604 107.913H14.9729C13.8832 107.913 13 108.796 13 109.885V111.318C13 112.407 13.8832 113.291 14.9729 113.291Z" fill="#A5BBAA"/>
<path d="M54.2121 113.291H114.662C115.752 113.291 116.635 112.407 116.635 111.318V109.885C116.635 108.796 115.752 107.913 114.662 107.913H54.2121C53.1224 107.913 52.2393 108.796 52.2393 109.885V111.318C52.2393 112.407 53.1224 113.291 54.2121 113.291Z" fill="#E8DFCF"/>
<path d="M37.136 113.291H20.0586V116.435H37.136V113.291Z" fill="#70927F"/>
<path d="M103.29 113.291H86.2129V116.435H103.29V113.291Z" fill="#70927F"/>
</g>
<defs>
<clipPath id="clip0_339_2375">
<rect width="232" height="145" rx="10" fill="white"/>
</clipPath>
</defs>
</svg>
